<svg width="200" height="200" viewBox="0 0 200 200" fill="none" xmlns="http://www.w3.org/2000/svg">
    <path d="M30.7031 30.7031C68.9745 -7.56825 131.025 -7.56825 169.297 30.7031C207.568 68.9745 207.568 131.025 169.297 169.297C131.025 207.568 68.9745 207.568 30.7031 169.297C-7.56825 131.025 -7.56825 68.9745 30.7031 30.7031Z" fill="#00FF87" stroke="#272117" stroke-width="4"/>
    <path d="M46.9669 46.9671C76.2562 17.6777 123.744 17.6777 153.033 46.967C182.322 76.2564 182.322 123.744 153.033 153.033C123.744 182.322 76.2563 182.322 46.9669 153.033C17.6776 123.744 17.6776 76.2564 46.9669 46.9671Z" fill="#272117"/>
    <path d="M79.3502 177.933L100.831 19.3818L120.65 22.0669L99.1691 180.618L79.3502 177.933Z" fill="#00FF87"/>
    <path d="M22.0668 79.3502L180.618 100.831L177.933 120.65L19.3817 99.1692L22.0668 79.3502Z" fill="#00FF87"/>
    <path d="M83.0293 83.0294C92.4019 73.6568 107.598 73.6568 116.97 83.0294C126.343 92.402 126.343 107.598 116.97 116.971C107.598 126.343 92.4019 126.343 83.0293 116.971C73.6567 107.598 73.6567 92.402 83.0293 83.0294Z" fill="#00FF87"/>
</svg>
