<svg width="266" height="266" viewBox="0 0 266 266" fill="none" xmlns="http://www.w3.org/2000/svg">
    <g clip-path="url(#clip0_11_6)">
        <path d="M109.82 212.35C81.5068 184.037 81.5068 138.133 109.82 109.82C138.133 81.5068 184.037 81.5068 212.35 109.82C240.663 138.133 240.663 184.037 212.35 212.35C184.037 240.663 138.133 240.663 109.82 212.35Z" fill="#272117" stroke="#272117" stroke-width="55"/>
        <circle cx="81.8891" cy="81.8891" r="42" transform="rotate(-135 81.8891 81.8891)" fill="#272117"/>
        <circle cx="81.8891" cy="81.8891" r="42" transform="rotate(-135 81.8891 81.8891)" stroke="#ECE3D6"/>
        <path d="M127.497 194.673C108.948 176.123 108.948 146.047 127.497 127.498C146.047 108.948 176.123 108.948 194.673 127.498C213.223 146.047 213.223 176.123 194.673 194.673C176.123 213.223 146.047 213.223 127.497 194.673Z" fill="#ECE3D6" stroke="#ECE3D6" stroke-width="55"/>
        <rect x="140.435" y="239.018" width="160" height="20" transform="rotate(-82.2845 140.435 239.018)" fill="#272117"/>
        <rect x="83.1519" y="140.435" width="160" height="20" transform="rotate(7.71552 83.1519 140.435)" fill="#272117"/>
        <path d="M144.114 144.115C153.487 134.742 168.683 134.742 178.056 144.114C187.428 153.487 187.428 168.683 178.056 178.056C168.683 187.428 153.487 187.428 144.114 178.056C134.742 168.683 134.742 153.487 144.114 144.115Z" fill="#272117"/>
        <path d="M138.835 58.6079C138.835 47.01 148.237 37.6079 159.835 37.6079C171.433 37.6079 180.835 47.01 180.835 58.6079C180.835 70.2059 171.433 79.6079 159.835 79.6079C148.237 79.6079 138.835 70.2059 138.835 58.6079Z" fill="#272117" stroke="#ECE3D6" stroke-width="4"/>
        <path d="M172.799 80.6701C173.466 81.055 174.299 80.5739 174.299 79.8041L174.299 76.34C174.299 75.5702 173.466 75.0891 172.799 75.474L169.799 77.206C169.132 77.5909 169.132 78.5532 169.799 78.9381L172.799 80.6701Z" fill="#ECE3D6"/>
        <path d="M159.433 84.572C159.818 85.2387 160.78 85.2387 161.165 84.572L162.897 81.572C163.282 80.9054 162.801 80.072 162.031 80.072H158.567C157.797 80.072 157.316 80.9054 157.701 81.572L159.433 84.572Z" fill="#ECE3D6"/>
        <path d="M145.299 79.8041C145.299 80.5739 146.132 81.055 146.799 80.6701L149.799 78.9381C150.466 78.5532 150.466 77.5909 149.799 77.206L146.799 75.474C146.132 75.0891 145.299 75.5702 145.299 76.34L145.299 79.8041Z" fill="#ECE3D6"/>
        <path d="M58.6079 180.835C47.0099 180.835 37.6079 171.433 37.6079 159.835C37.6079 148.237 47.0099 138.835 58.6079 138.835C70.2059 138.835 79.6079 148.237 79.6079 159.835C79.6079 171.433 70.2059 180.835 58.6079 180.835Z" fill="#272117" stroke="#ECE3D6" stroke-width="4"/>
        <path d="M80.67 146.871C81.0549 146.204 80.5738 145.371 79.804 145.371L76.3399 145.371C75.5701 145.371 75.089 146.204 75.4739 146.871L77.2059 149.871C77.5908 150.537 78.5531 150.537 78.938 149.871L80.67 146.871Z" fill="#ECE3D6"/>
        <path d="M84.572 160.237C85.2386 159.852 85.2386 158.89 84.572 158.505L81.572 156.773C80.9053 156.388 80.072 156.869 80.072 157.639V161.103C80.072 161.873 80.9053 162.354 81.572 161.969L84.572 160.237Z" fill="#ECE3D6"/>
        <path d="M79.804 174.371C80.5738 174.371 81.0549 173.537 80.67 172.871L78.938 169.871C78.5531 169.204 77.5908 169.204 77.2059 169.871L75.4739 172.871C75.089 173.537 75.5701 174.371 76.3399 174.371L79.804 174.371Z" fill="#ECE3D6"/>
        <path d="M94.9706 102.042C86.5743 93.6454 86.5743 80.0324 94.9706 71.6361C103.367 63.2398 116.98 63.2398 125.376 71.6361C133.772 80.0323 133.772 93.6454 125.376 102.042C116.98 110.438 103.367 110.438 94.9706 102.042Z" fill="#272117" stroke="#ECE3D6" stroke-width="4"/>
        <path d="M70.9289 126.083C62.5327 117.687 62.5327 104.074 70.9289 95.6777C79.3252 87.2815 92.9383 87.2815 101.335 95.6777C109.731 104.074 109.731 117.687 101.335 126.083C92.9383 134.48 79.3252 134.48 70.9289 126.083Z" fill="#272117" stroke="#ECE3D6" stroke-width="4"/>
        <path d="M43.7054 107.345C41.3514 104.991 45.0253 97.9982 51.6245 89.4407C52.0801 86.3735 53.4567 83.4515 56.0798 80.8284C58.1001 78.8081 60.2537 77.4851 62.4852 76.7239C66.8278 72.0378 71.5435 67.3221 76.2399 62.9622C76.9524 60.7841 78.203 58.7052 80.1214 56.7868C82.8569 54.0513 85.8363 52.593 88.9237 52.0794C97.7388 45.2235 104.978 41.3385 107.345 43.7053C112.71 49.0707 119.879 60.164 121.614 69.3075C122.487 70.1615 123.274 70.9478 123.962 71.636C131.968 79.6417 131.968 92.6216 123.962 100.627C118.958 105.631 112.011 107.508 105.55 106.257C106.801 112.718 104.924 119.665 99.9204 124.669C91.9147 132.675 78.9348 132.675 70.929 124.669C69.945 123.685 68.7704 122.489 67.4922 121.122C58.7253 119.229 48.7329 112.372 43.7054 107.345Z" fill="#272117"/>
        <path d="M43.7054 107.345C41.3514 104.991 45.0253 97.9982 51.6245 89.4407C52.0801 86.3735 53.4567 83.4515 56.0798 80.8284C58.1001 78.8081 60.2537 77.4851 62.4852 76.7239C66.8278 72.0378 71.5435 67.3221 76.2399 62.9622C76.9524 60.7841 78.203 58.7052 80.1214 56.7868C82.8569 54.0513 85.8363 52.593 88.9237 52.0794C97.7388 45.2235 104.978 41.3385 107.345 43.7053C112.71 49.0707 119.879 60.164 121.614 69.3075C122.487 70.1615 123.274 70.9478 123.962 71.636C131.968 79.6417 131.968 92.6216 123.962 100.627C118.958 105.631 112.011 107.508 105.55 106.257C106.801 112.718 104.924 119.665 99.9204 124.669C91.9147 132.675 78.9348 132.675 70.929 124.669C69.945 123.685 68.7704 122.489 67.4922 121.122C58.7253 119.229 48.7329 112.372 43.7054 107.345Z" stroke="#272117"/>
        <path d="M82.2748 3.22009C83.0446 1.88676 84.9691 1.88676 85.7389 3.22009L112.586 49.7201C113.355 51.0534 112.393 52.7201 110.854 52.7201H57.16C55.6204 52.7201 54.6582 51.0534 55.428 49.7201L82.2748 3.22009Z" fill="#272117"/>
        <path d="M3.21649 82.2784C1.88315 83.0482 1.88316 84.9727 3.21649 85.7425L49.7165 112.589C51.0498 113.359 52.7165 112.397 52.7165 110.857V57.1636C52.7165 55.624 51.0498 54.6618 49.7165 55.4316L3.21649 82.2784Z" fill="#272117"/>
        <path d="M82.1951 14.9272C82.9649 13.5939 84.8894 13.5939 85.6592 14.9272L102.98 44.9272C103.75 46.2605 102.787 47.9272 101.248 47.9272H66.6066C65.067 47.9272 64.1048 46.2605 64.8746 44.9272L82.1951 14.9272Z" fill="#ECE3D6"/>
        <path d="M14.8439 85.7425C13.5106 84.9727 13.5106 83.0482 14.8439 82.2784L44.8439 64.9579C46.1772 64.1881 47.8439 65.1503 47.8439 66.6899V101.331C47.8439 102.871 46.1772 103.833 44.8439 103.063L14.8439 85.7425Z" fill="#ECE3D6"/>
        <path d="M52.1906 111.588C44.3141 103.711 39.8891 93.0282 39.8891 81.8891C39.8891 70.75 44.3141 60.0672 52.1906 52.1906C60.0671 44.3141 70.75 39.8891 81.8891 39.8891C93.0282 39.8891 103.711 44.3141 111.588 52.1906L81.8891 81.8891L52.1906 111.588Z" fill="#272117"/>
        <path d="M64.9185 64.9186L60.1514 44.2298L44.2298 60.1515L64.9185 64.9186Z" fill="#272117"/>
        <path d="M110.276 65.7488L93.7868 65.8686" stroke="#ECE3D6" stroke-width="4" stroke-linecap="round"/>
        <path d="M93.669 82.3554L93.7868 65.8686" stroke="#ECE3D6" stroke-width="4" stroke-linecap="round"/>
        <path d="M81.9913 94.033L65.5025 94.1529" stroke="#ECE3D6" stroke-width="4" stroke-linecap="round"/>
        <path d="M65.3847 110.64L65.5025 94.1529" stroke="#ECE3D6" stroke-width="4" stroke-linecap="round"/>
    </g>
    <defs>
        <clipPath id="clip0_11_6">
            <rect width="266" height="266" fill="white"/>
        </clipPath>
    </defs>
</svg>
