<svg width="266" height="266" viewBox="0 0 266 266" fill="none" xmlns="http://www.w3.org/2000/svg">
    <g clip-path="url(#clip0_5_80)">
        <path d="M108.82 212.85C80.5068 184.537 80.5068 138.633 108.82 110.32C137.133 82.0068 183.037 82.0068 211.35 110.32C239.663 138.633 239.663 184.537 211.35 212.85C183.037 241.163 137.133 241.163 108.82 212.85Z" fill="#9095E8" stroke="#9095E8" stroke-width="55"/>
        <circle cx="81.8891" cy="82.3891" r="42" transform="rotate(-135 81.8891 82.3891)" fill="#9095E8"/>
        <circle cx="81.8891" cy="82.3891" r="42" transform="rotate(-135 81.8891 82.3891)" stroke="#131428"/>
        <path d="M126.497 195.173C107.948 176.623 107.948 146.547 126.497 127.998C145.047 109.448 175.123 109.448 193.673 127.998C212.223 146.547 212.223 176.623 193.673 195.173C175.123 213.723 145.047 213.723 126.497 195.173Z" fill="#131428" stroke="#131428" stroke-width="55"/>
        <rect x="140.435" y="239.518" width="160" height="20" transform="rotate(-82.2845 140.435 239.518)" fill="#9095E8"/>
        <rect x="83.1519" y="140.935" width="160" height="20" transform="rotate(7.71552 83.1519 140.935)" fill="#9095E8"/>
        <path d="M143.114 144.615C152.487 135.242 167.683 135.242 177.056 144.614C186.428 153.987 186.428 169.183 177.056 178.556C167.683 187.928 152.487 187.928 143.114 178.556C133.742 169.183 133.742 153.987 143.114 144.615Z" fill="#9095E8"/>
        <path d="M138.835 59.1079C138.835 47.5099 148.237 38.1079 159.835 38.1079C171.433 38.1079 180.835 47.5099 180.835 59.1079C180.835 70.7059 171.433 80.1079 159.835 80.1079C148.237 80.1079 138.835 70.7059 138.835 59.1079Z" fill="#9095E8" stroke="#131428" stroke-width="4"/>
        <path d="M172.799 81.1701C173.466 81.555 174.299 81.0739 174.299 80.3041L174.299 76.84C174.299 76.0702 173.466 75.589 172.799 75.9739L169.799 77.706C169.132 78.0909 169.132 79.0531 169.799 79.438L172.799 81.1701Z" fill="#131428"/>
        <path d="M159.433 85.072C159.818 85.7387 160.78 85.7387 161.165 85.072L162.897 82.072C163.282 81.4053 162.801 80.572 162.031 80.572H158.567C157.797 80.572 157.316 81.4053 157.701 82.072L159.433 85.072Z" fill="#131428"/>
        <path d="M145.299 80.3041C145.299 81.0739 146.132 81.555 146.799 81.1701L149.799 79.438C150.466 79.0531 150.466 78.0909 149.799 77.706L146.799 75.9739C146.132 75.589 145.299 76.0702 145.299 76.84L145.299 80.3041Z" fill="#131428"/>
        <path d="M58.6079 181.335C47.0099 181.335 37.6079 171.933 37.6079 160.335C37.6079 148.737 47.0099 139.335 58.6079 139.335C70.2059 139.335 79.6079 148.737 79.6079 160.335C79.6079 171.933 70.2059 181.335 58.6079 181.335Z" fill="#9095E8" stroke="#131428" stroke-width="4"/>
        <path d="M80.67 147.371C81.0549 146.704 80.5738 145.871 79.804 145.871L76.3399 145.871C75.5701 145.871 75.089 146.704 75.4739 147.371L77.2059 150.371C77.5908 151.037 78.5531 151.037 78.938 150.371L80.67 147.371Z" fill="#131428"/>
        <path d="M84.572 160.737C85.2386 160.352 85.2386 159.39 84.572 159.005L81.572 157.273C80.9053 156.888 80.072 157.369 80.072 158.139V161.603C80.072 162.373 80.9053 162.854 81.572 162.469L84.572 160.737Z" fill="#131428"/>
        <path d="M79.804 174.871C80.5738 174.871 81.0549 174.037 80.67 173.371L78.938 170.371C78.5531 169.704 77.5908 169.704 77.2059 170.371L75.4739 173.371C75.089 174.037 75.5701 174.871 76.3399 174.871L79.804 174.871Z" fill="#131428"/>
        <path d="M94.9705 102.542C86.5743 94.1454 86.5743 80.5324 94.9705 72.1361C103.367 63.7398 116.98 63.7398 125.376 72.1361C133.772 80.5323 133.772 94.1454 125.376 102.542C116.98 110.938 103.367 110.938 94.9705 102.542Z" fill="#9095E8" stroke="#131428" stroke-width="4"/>
        <path d="M70.9289 126.583C62.5326 118.187 62.5326 104.574 70.9289 96.1777C79.3252 87.7814 92.9382 87.7814 101.335 96.1777C109.731 104.574 109.731 118.187 101.335 126.583C92.9382 134.98 79.3252 134.98 70.9289 126.583Z" fill="#9095E8" stroke="#131428" stroke-width="4"/>
        <path d="M43.7054 107.845C41.3514 105.491 45.0253 98.4982 51.6244 89.9407C52.0801 86.8735 53.4567 83.9515 56.0798 81.3284C58.1 79.3081 60.2537 77.9851 62.4851 77.2238C66.8277 72.5377 71.5435 67.822 76.2399 63.4622C76.9524 61.2841 78.2029 59.2052 80.1214 57.2867C82.8569 54.5513 85.8363 53.093 88.9236 52.5794C97.7388 45.7235 104.978 41.8385 107.345 44.2053C112.71 49.5707 119.879 60.6639 121.614 69.8075C122.487 70.6615 123.274 71.4478 123.962 72.136C131.968 80.1417 131.968 93.1216 123.962 101.127C118.958 106.131 112.011 108.008 105.55 106.757C106.801 113.218 104.924 120.165 99.9204 125.169C91.9146 133.175 78.9347 133.175 70.929 125.169C69.945 124.185 68.7704 122.989 67.4922 121.622C58.7252 119.729 48.7329 112.872 43.7054 107.845Z" fill="#9095E8"/>
        <path d="M43.7054 107.845C41.3514 105.491 45.0253 98.4982 51.6244 89.9407C52.0801 86.8735 53.4567 83.9515 56.0798 81.3284C58.1 79.3081 60.2537 77.9851 62.4851 77.2238C66.8277 72.5377 71.5435 67.822 76.2399 63.4622C76.9524 61.2841 78.2029 59.2052 80.1214 57.2867C82.8569 54.5513 85.8363 53.093 88.9236 52.5794C97.7388 45.7235 104.978 41.8385 107.345 44.2053C112.71 49.5707 119.879 60.6639 121.614 69.8075C122.487 70.6615 123.274 71.4478 123.962 72.136C131.968 80.1417 131.968 93.1216 123.962 101.127C118.958 106.131 112.011 108.008 105.55 106.757C106.801 113.218 104.924 120.165 99.9204 125.169C91.9146 133.175 78.9347 133.175 70.929 125.169C69.945 124.185 68.7704 122.989 67.4922 121.622C58.7252 119.729 48.7329 112.872 43.7054 107.845Z" stroke="#9095E8"/>
        <path d="M82.2748 3.72007C83.0446 2.38674 84.9691 2.38674 85.7389 3.72007L112.586 50.2201C113.355 51.5534 112.393 53.2201 110.854 53.2201H57.16C55.6204 53.2201 54.6582 51.5534 55.428 50.2201L82.2748 3.72007Z" fill="#9095E8"/>
        <path d="M3.21646 82.7784C1.88312 83.5482 1.88313 85.4727 3.21646 86.2425L49.7165 113.089C51.0498 113.859 52.7165 112.897 52.7165 111.357V57.6636C52.7165 56.124 51.0498 55.1618 49.7165 55.9316L3.21646 82.7784Z" fill="#9095E8"/>
        <path d="M82.1951 15.4272C82.9649 14.0938 84.8894 14.0938 85.6592 15.4272L102.98 45.4272C103.75 46.7605 102.787 48.4272 101.248 48.4272H66.6066C65.067 48.4272 64.1048 46.7605 64.8746 45.4272L82.1951 15.4272Z" fill="#131428"/>
        <path d="M14.8439 86.2425C13.5105 85.4727 13.5105 83.5482 14.8439 82.7784L44.8439 65.4579C46.1772 64.6881 47.8439 65.6503 47.8439 67.1899V101.831C47.8439 103.371 46.1772 104.333 44.8439 103.563L14.8439 86.2425Z" fill="#131428"/>
        <path d="M52.1906 112.088C44.3141 104.211 39.8891 93.5282 39.8891 82.3891C39.8891 71.25 44.3141 60.5672 52.1906 52.6906C60.0671 44.8141 70.75 40.3891 81.8891 40.3891C93.0282 40.3891 103.711 44.8141 111.588 52.6906L81.8891 82.3891L52.1906 112.088Z" fill="#9095E8"/>
        <path d="M64.9185 65.4186L60.1514 44.7298L44.2298 60.6515L64.9185 65.4186Z" fill="#9095E8"/>
        <path d="M110.276 66.2488L93.7867 66.3686" stroke="#131428" stroke-width="4" stroke-linecap="round"/>
        <path d="M93.669 82.8554L93.7867 66.3686" stroke="#131428" stroke-width="4" stroke-linecap="round"/>
        <path d="M81.9913 94.533L65.5025 94.6529" stroke="#131428" stroke-width="4" stroke-linecap="round"/>
        <path d="M65.3847 111.14L65.5025 94.6529" stroke="#131428" stroke-width="4" stroke-linecap="round"/>
    </g>
    <defs>
        <clipPath id="clip0_5_80">
            <rect width="266" height="266" fill="white"/>
        </clipPath>
    </defs>
</svg>
